<svg width="1452" height="222" viewBox="0 0 1452 222">
    <g fill="none" fill-rule="evenodd">
        <path fill="#6E1D49"
              d="M665.925 85.636h-20.607l-12.71 44.821-11.524-48.107H599.17l23.364 77.509h19.591l13.331-46.871 13.516 46.871h18.895l22.848-77.509h-20.702l-11.407 47.618-12.681-44.332zm-70.816 32.333v6.272c0 5.178-.912 10.003-2.007 14.532-1.097 4.532-2.986 8.489-5.675 11.873-2.689 3.385-6.348 6.075-10.977 8.065-4.629 1.992-12.25 3.05-19.218 3.05-6.97 0-14.773-1.168-19.353-3.059-4.579-1.89-8.237-4.504-10.975-7.841-2.74-3.334-4.681-7.291-5.826-11.873-1.144-4.578-2.011-9.45-2.011-14.825v-6.273c0-5.377.96-10.023 2.154-14.603 1.196-4.577 3.16-8.513 5.899-11.799 2.738-3.286 6.397-5.873 10.979-7.765 4.577-1.891 12.263-3.057 19.133-3.057 6.871 0 14.296.913 18.876 2.803 4.579 1.894 8.238 4.48 10.977 7.766 2.738 3.287 4.677 7.221 5.824 11.798 1.142 4.583 2.2 9.559 2.2 14.936zm-20.703-1.27c0-7.965-1.247-13.613-3.732-16.951-2.49-3.334-6.923-5.003-13.293-5.003-6.372 0-10.878 1.669-13.515 5.003-2.64 3.338-3.957 8.986-3.957 16.951v8.66c0 4.283.322 7.842.97 10.679.646 2.84 1.693 5.104 3.136 6.797 1.441 1.693 3.26 2.889 5.451 3.583 2.19.697 4.829 1.047 7.915 1.047 6.273 0 10.679-1.667 13.217-5.005 2.54-3.333 3.808-9.033 3.808-17.101v-8.66zm148.1-62.97c-1.866 1.743-2.798 4.432-2.798 7.616 0 3.188.932 5.876 2.798 7.618 1.864 1.743 5.167 2.56 9.324 2.56 4.158 0 7.352-.817 9.218-2.56 1.864-1.742 2.798-4.43 2.798-7.618 0-3.184-.934-5.873-2.798-7.616-1.866-1.742-5.06-2.668-9.218-2.668-4.157 0-7.46.926-9.324 2.668zm-1.014 106.129h21.026V82.349h-21.026v77.509zM426.098 82.349v40.008c0 6.771-.393 14.279-3.141 18.024-2.612 3.556-6.964 6.617-12.839 6.617-5.375 0-8.797-1.303-11.088-3.941-2.289-2.637-3.436-7.093-3.436-13.366V82.349h-20.605v52.271c0 4.579.696 8.56 2.089 11.948 1.396 3.384 3.338 6.196 5.824 8.438 2.49 2.239 5.451 3.906 8.886 5.003 3.436 1.093 8.175 1.642 12.357 1.642 5.078 0 9.584-.873 13.515-2.614 3.934-1.742 7.146-4.256 9.634-7.542l1.195 8.364h18.912v-77.51h-21.303zM292.397 53.526v106.333h66.609l3.671-17.703h-49.021v-26.99h40.56l3.683-19.155h-44.243V71.195h45.059l3.962-17.669h-70.28zm222.617 29.42c-1.694-.596-3.312-1.018-4.854-1.267-1.543-.25-3.31-.375-5.302-.375-5.178 0-9.608.873-13.29 2.613-3.685 1.743-6.773 4.309-9.259 7.692l-1.196-9.259h-19.947v77.509h22.337v-42.116c0-7.067.752-10.789 3.691-14.224 2.935-3.435 7.69-5.152 14.261-5.152 1.792 0 3.534.149 5.228.449 1.69.297 3.137.596 4.33.895l4.001-16.765zm262.941 76.913v-40.008c0-6.77.393-14.278 3.141-18.023 2.611-3.557 6.964-6.617 12.84-6.617 5.375 0 8.797 1.303 11.088 3.94 2.289 2.638 3.435 7.094 3.435 13.366v47.342h20.608v-52.27c0-4.58-.699-8.561-2.092-11.949-1.396-3.383-3.338-6.196-5.824-8.437-2.491-2.239-5.45-3.906-8.886-5.002-3.436-1.095-8.175-1.644-12.356-1.644-5.079 0-9.584.874-13.516 2.615-3.934 1.742-7.146 4.256-9.634 7.542l-1.194-8.364h-18.912v77.509h21.302zm138.937-71.237v66.758c0 12.741-3.013 22.598-9.783 29.568-6.771 6.969-16.557 10.757-29.368 10.454-6.201-.145-11.865-.373-16.981-1.119a81.162 81.162 0 01-14.966-3.658l3.474-15.818a92.952 92.952 0 0011.808 2.723c4.24.695 7.443 1.029 13.006 1.27 7.952.342 14.112-1.479 17.577-5.662 3.464-4.18 4.864-9.113 4.864-17.377v-3.397c-5.39 5.193-11.989 8.08-22.533 8.08-10.133 0-19.62-3.807-24.737-9.731-5.117-5.923-7.677-15.208-7.677-27.853v-5.227c0-6.47.904-12.047 2.714-16.726 1.807-4.679 4.393-8.514 7.754-11.5 3.358-2.987 7.444-5.202 12.25-6.647 4.808-1.442 12.153-2.203 18.254-2.203 6.409 0 11.968.371 17.655 1.812 5.685 1.446 12.036 3.765 16.689 6.253zm-20.369 9.274c-1.792-1.092-3.984-1.889-6.572-2.388a41.205 41.205 0 00-7.767-.747c-6.569 0-11.374 1.694-14.411 5.078-3.038 3.385-4.556 9.061-4.556 17.024v5.377c0 3.685.226 6.923.675 9.708.446 2.789 1.267 5.151 2.464 7.094 1.194 1.941 2.858 3.411 5.002 4.406 2.139.995 4.902 1.493 8.288 1.493 5.874 0 10.156-1.642 12.844-4.929 2.687-3.285 4.033-8.413 4.033-15.381V97.896zm74.523 15.591c3.982.499 9.374 1.275 12.062 2.618 2.689 1.344 4.941 3.321 6.536 5.263a18.13 18.13 0 013.435 6.571 26.798 26.798 0 011.045 7.391v1.493c0 4.383-.798 8.141-2.388 11.277a19.667 19.667 0 01-6.797 7.616c-2.937 1.942-8.529 3.505-12.657 4.402-4.133.895-8.69 1.342-13.665 1.342-4.181 0-8.664-.323-13.443-.969-4.776-.646-9.557-1.719-14.335-3.212l3.317-14.578c4.679 1.296 8.919 2.078 12.703 2.625 3.782.548 7.566.745 11.35.821 3.554.074 5.836.045 8.199-.217 2.171-.243 3.791-.871 4.985-1.668 1.196-.796 2.308-2.036 2.666-3.26.304-1.038.388-1.643.388-3.139 0-2.288-.64-3.905-1.782-5.45-1.146-1.541-3.517-2.382-7.2-2.881l-11.095-1.523c-7.765-.996-15.758-3.113-19.441-6.797-3.685-3.683-5.526-8.561-5.526-14.635v-1.493c0-7.865 2.913-13.762 8.736-17.698 5.826-3.932 16.494-6.422 27.348-6.422 5.375 0 10.23.399 14.56 1.196 4.33.798 7.789 1.693 10.38 2.688l-3.553 14.148a85.912 85.912 0 00-10.382-2.007c-3.638-.476-6.857-.704-10.641-.704-6.868 0-11.299.388-13.736 1.829-2.444 1.446-3.505 2.814-3.505 6 0 2.687.886 4.176 2.38 5.32 1.493 1.144 3.877 2.063 7.661 2.56l12.395 1.493zm444.604 46.362h9.1V48.921h-9.1v110.928zm-75.25-22.544c0 5.774 1.52 9.955 4.56 12.541 3.03 2.589 8.18 3.882 15.45 3.882 4.28 0 7.91-.448 10.9-1.343 2.98-.896 5.39-2.114 7.24-3.659 1.84-1.542 3.18-3.381 4.03-5.523.84-2.14 1.27-4.453 1.27-6.942v-1.195c0-2.986-.55-5.472-1.64-7.465-1.1-1.99-2.59-3.584-4.48-4.778-1.9-1.194-4.14-2.038-6.72-2.538-2.59-.496-5.38-.746-8.36-.746h-2.39c-3.88 0-7.09.373-9.63 1.12-2.54.746-4.58 1.843-6.12 3.284a11.313 11.313 0 00-3.21 5.226c-.6 2.041-.9 4.404-.9 7.092v1.044zm-8.96-.895c0-8.261 2.47-14.308 7.39-18.14 4.93-3.831 12.42-5.748 22.47-5.748 5.18 0 9.71.597 13.59 1.791 3.88 1.195 6.87 2.987 8.96 5.375v-7.465c0-8.16-1.97-13.982-5.9-17.468-3.93-3.482-9.98-5.225-18.14-5.225-3.48 0-7.12.25-10.9.747-3.78.499-7.27 1.096-10.45 1.791l1.49-7.316c2.69-.795 5.9-1.492 9.63-2.09 3.74-.597 7.44-.896 11.13-.896 4.77 0 9.1.523 12.98 1.568 3.89 1.045 7.25 2.713 10.08 5.002 2.84 2.29 5.03 5.276 6.57 8.957 1.54 3.684 2.32 8.114 2.32 13.288v49.268h-7.92l-.74-8.958c-2.59 3.684-5.88 6.346-9.86 7.988-3.98 1.642-8.76 2.464-14.33 2.464-9.36 0-16.42-1.841-21.2-5.525-4.78-3.681-7.17-9.555-7.17-17.617v-1.791zm-38.36-44.939v44.192c0 3.583.32 6.546.97 8.884.64 2.34 1.64 4.179 2.98 5.523 1.35 1.344 3.04 2.266 5.08 2.763 2.04.499 4.4.746 7.09.746 1.69 0 3.36-.124 5-.373 1.64-.247 3.21-.523 4.7-.821l-1.34 7.315c-3.09 1.094-6.72 1.643-10.9 1.643-3.68 0-6.94-.425-9.78-1.27-2.83-.844-5.2-2.263-7.09-4.255-1.89-1.989-3.31-4.628-4.25-7.913-.95-3.284-1.42-7.413-1.42-12.392V91.471h-15.38l1.34-7.913h14.04V63.702l8.96-1.643v21.499h25.53l-1.5 7.913h-24.03zm-48.67 68.378h9.25V83.558h-9.25v76.291zm4.48-105.852c4.47 0 6.71 2.24 6.71 6.719 0 4.381-2.24 6.569-6.71 6.569-4.38 0-6.57-2.188-6.57-6.569 0-4.479 2.19-6.719 6.57-6.719zm-83.46 67.931c0 4.777.35 9.032 1.04 12.764.7 3.734 1.92 6.868 3.66 9.406 1.74 2.539 4.03 4.456 6.87 5.748 2.84 1.295 6.39 1.941 10.67 1.941 8.07 0 14.06-2.113 18-6.345 3.93-4.229 5.89-11.022 5.89-20.379V93.86a39.82 39.82 0 00-8.58-3.136c-2.94-.695-6.6-1.044-10.98-1.044-9.05 0-15.75 2.365-20.08 7.091-4.33 4.728-6.49 12.518-6.49 23.366v1.791zm55.24 36.428c0 5.674-.65 10.799-1.94 15.378-1.3 4.577-3.34 8.485-6.12 11.72-2.79 3.233-6.37 5.697-10.75 7.391-4.38 1.691-9.61 2.538-15.68 2.538-9.16 0-18.12-1.344-26.87-4.032l1.94-7.614c4.28 1.194 8.38 2.09 12.32 2.688 3.93.596 8.28.895 13.06.895 4.78 0 8.76-.697 11.94-2.09 3.19-1.395 5.75-3.433 7.69-6.121 1.94-2.687 3.31-5.949 4.11-9.779.79-3.833 1.19-8.189 1.19-13.064v-8.808c-.99 1.593-2.21 3.111-3.66 4.554-1.44 1.443-3.18 2.738-5.22 3.881-2.04 1.146-4.46 2.041-7.24 2.688-2.79.648-6.07.97-9.86.97-4.38 0-8.36-.621-11.94-1.867-3.58-1.243-6.67-3.284-9.26-6.121-2.59-2.837-4.6-6.517-6.04-11.048-1.45-4.528-2.17-10.127-2.17-16.795v-5.077c0-6.271.85-11.694 2.54-16.274 1.69-4.576 4.11-8.409 7.24-11.495 3.14-3.084 6.87-5.375 11.2-6.868 4.33-1.493 9.13-2.24 14.41-2.24 5.67 0 10.94.623 15.82 1.867 4.88 1.245 9.31 2.963 13.29 5.151v69.572zm-94.95 1.493h9.25V83.558h-9.25v76.291zm5.91-105.78a5.786 5.786 0 015.21 5.218c.55 5.702-2.02 8.352-7.7 7.959-2.8-.193-5.28-2.674-5.47-5.47-.4-5.684 2.25-8.253 7.96-7.707zm-95.34 97.42h22.69c5.57 0 10.5-.621 14.78-1.866 4.28-1.244 7.89-3.36 10.83-6.346 2.93-2.985 5.15-6.966 6.64-11.943 1.49-4.977 2.24-11.197 2.24-18.663v-11.944c0-7.264-.7-13.362-2.09-18.289-1.4-4.926-3.51-8.907-6.35-11.944-2.83-3.035-6.39-5.225-10.67-6.568-4.28-1.344-9.31-2.016-15.08-2.016h-22.99v89.579zm-9.56-97.94h33c8.56 0 15.62 1.171 21.2 3.508 5.57 2.34 10 5.576 13.29 9.705 3.28 4.131 5.57 9.033 6.86 14.706 1.3 5.673 1.94 11.846 1.94 18.513v13.437c0 6.867-.72 13.137-2.16 18.811-1.44 5.673-3.83 10.577-7.17 14.706-3.33 4.131-7.79 7.316-13.36 9.555-5.57 2.239-12.54 3.359-20.9 3.359h-32.7v-106.3z"></path>
        <path fill="#23A0BC"
              d="M186.081 106.69c-17.376 0-26.626 9.207-26.626 26.583l.042 13.27c0 8.675-4.617 13.292-13.291 13.292h-.001 38.447c.949-4 1.429-8.434 1.429-13.292V106.69M66.411 53.529c-21.171 0-34.25 9.163-38.402 26.58h51.753c14.68 0 26.579-11.901 26.579-26.58h-39.93"></path>
        <path fill="#9A245D"
              d="M211.223 53.529c-4.162-17.433-17.29-26.58-38.479-26.58h-39.823c-14.679 0-26.579 11.9-26.579 26.58h104.881"></path>
        <path fill="#6E1D49"
              d="M172.791 53.529c8.671.002 13.286 4.665 13.286 13.338l.004 39.822c14.68 0 26.58-11.901 26.58-26.58V66.824c0-4.861-.483-9.296-1.438-13.295h-38.432"></path>
        <path fill="#65C2C9"
              d="M146.206 159.835H66.455c-8.674 0-13.292-4.617-13.292-13.292V93.377c0-8.441 4.385-13.028 12.614-13.268H28.009c-.945 3.993-1.43 8.419-1.43 13.268v53.209c0 26.051 13.869 39.832 39.918 39.832l79.752.043c21.193 0 34.264-9.178 38.403-26.626h-38.446"></path>
    </g>
</svg>